# xmcd CD database file
#
# Track frame offsets:
#	150
#	21137
#	23996
#	46915
#	54746
#	68290
#	89066
#	92841
#	112985
#	121237
#	135848
#	139483
#	152996
#	155810
#	178774
#	201548
#	208986
#
# Disc length: 3048 seconds
#
# Revision: 0
# Processed by: cddbd v1.5.1PL2 Copyright (c) Steve Scherf et al.
# Submitted via: CDex 1.51
#
DISCID=f90be611
DTITLE=Jason Levasseur - The Opening Guy
DYEAR=2002
DGENRE=Country
TTITLE0=Big Sky
TTITLE1=The Opening Guy in Coastal Atlanta
TTITLE2=Captain
TTITLE3=Broken Leg And Broken heart
TTITLE4=Those Were The Times
TTITLE5=Precious Town
TTITLE6=Theis Is My Stage Show
TTITLE7=Pour The Wine
TTITLE8=The Girl From Pennsylvania
TTITLE9=Fiddle
TTITLE10=Don't Know The Songs
TTITLE11=Suppose
TTITLE12=Needs Some Horns
TTITLE13=San Miguel
TTITLE14=The Steps Of Saint Patricks
TTITLE15=Saving The World
TTITLE16=One More Hour
EXTD=YEAR: 2002
EXTT0=
EXTT1=
EXTT2=
EXTT3=
EXTT4=
EXTT5=
EXTT6=
EXTT7=
EXTT8=
EXTT9=
EXTT10=
EXTT11=
EXTT12=
EXTT13=
EXTT14=
EXTT15=
EXTT16=
PLAYORDER=
